<?xml version="1.0" standalone="no"?>
<!DOCTYPE svg PUBLIC "-//W3C//DTD SVG 20010904//EN"
 "http://www.w3.org/TR/2001/REC-SVG-20010904/DTD/svg10.dtd">
<svg version="1.0" xmlns="http://www.w3.org/2000/svg"
 width="473.000000pt" height="473.000000pt" viewBox="0 0 473.000000 473.000000"
 preserveAspectRatio="xMidYMid meet">
<metadata>
Created by potrace 1.14, written by Peter Selinger 2001-2017
</metadata>
<g transform="translate(0.000000,473.000000) scale(0.100000,-0.100000)"
fill="#000000" stroke="none">
<path d="M2248 3775 c-1 -2 -25 -6 -53 -9 -272 -30 -571 -209 -751 -449 -92
-124 -181 -321 -200 -443 -3 -21 -9 -55 -13 -74 -24 -108 -3 -367 39 -494 l10
-31 194 0 c107 0 196 2 199 5 2 3 34 118 71 255 37 138 70 258 74 269 5 13 32
-65 87 -255 l80 -273 53 -2 c46 -1 55 2 63 20 5 12 52 170 104 351 53 182 98
336 100 343 3 9 -12 12 -54 12 l-58 0 -71 -247 c-69 -235 -78 -262 -85 -252
-2 2 -30 94 -62 204 -32 110 -64 221 -72 248 l-14 47 -69 0 -69 0 -20 -67
c-11 -38 -41 -142 -66 -233 -25 -91 -55 -195 -66 -232 l-20 -68 -123 0 -124 0
-13 53 c-22 91 -16 324 10 415 5 17 8 32 6 32 -7 0 55 160 81 213 153 300 445
514 779 570 79 14 258 15 325 2 180 -33 313 -87 450 -182 117 -82 270 -253
328 -368 8 -16 20 -21 54 -20 52 1 52 3 -9 106 -171 287 -459 484 -795 543
-72 12 -290 21 -300 11z"/>
<path d="M2620 2975 c-5 -14 -12 -36 -15 -48 -2 -12 -13 -51 -24 -87 -11 -36
-40 -137 -66 -225 -25 -87 -47 -161 -49 -162 -2 -2 -15 40 -30 94 -66 245 -80
293 -82 290 -1 -1 -16 -48 -32 -105 l-30 -102 18 -68 c9 -37 32 -117 50 -177
l32 -110 69 -1 69 0 24 80 c14 45 39 131 56 191 70 247 72 252 80 225 4 -14
38 -128 74 -255 37 -126 71 -232 76 -235 5 -3 38 -6 72 -5 l62 0 86 301 85
301 124 -1 125 -1 8 -30 c19 -64 21 -286 4 -382 -59 -337 -268 -620 -571 -771
-161 -81 -292 -111 -478 -110 -187 0 -331 36 -495 123 -151 79 -309 228 -397
374 -50 81 -50 81 -92 81 -24 0 -43 -4 -43 -10 0 -17 90 -163 140 -224 298
-372 793 -521 1241 -375 298 97 535 302 674 584 121 246 151 521 84 784 -11
41 -19 76 -19 78 0 1 -90 3 -199 3 l-200 0 -15 -57 c-9 -32 -20 -71 -25 -88
-5 -16 -31 -112 -57 -212 -26 -101 -50 -183 -53 -183 -3 0 -33 94 -65 208 -33
114 -68 235 -78 270 l-19 62 -55 0 c-49 0 -55 -2 -64 -25z"/>
<path d="M1350 1153 c-9 -2 -30 -42 -50 -95 -19 -51 -36 -95 -37 -98 -2 -3 8
-6 22 -6 19 -2 27 4 31 22 9 34 70 35 85 1 11 -24 49 -35 49 -14 0 20 -61 171
-73 183 -7 6 -19 9 -27 7z m24 -98 c5 -16 1 -21 -14 -22 -22 -2 -23 1 -14 35
7 25 18 20 28 -13z"/>
<path d="M1579 1146 c-18 -8 -25 -21 -27 -48 -3 -35 -2 -37 50 -56 29 -11 53
-26 53 -33 0 -20 -54 -24 -61 -5 -8 20 -54 21 -54 2 0 -8 12 -24 28 -36 46
-37 128 -15 136 36 6 33 -13 53 -62 67 -49 15 -56 24 -29 41 11 7 21 5 35 -7
23 -21 49 -22 49 -2 0 38 -73 64 -118 41z"/>
<path d="M2628 1144 c-21 -11 -28 -22 -28 -43 0 -33 13 -46 66 -65 21 -7 39
-19 39 -27 0 -19 -46 -24 -59 -7 -15 20 -44 29 -52 17 -11 -19 25 -58 60 -64
45 -9 73 1 93 31 24 38 6 68 -56 89 -36 11 -48 20 -44 31 7 18 37 18 53 -1 15
-19 50 -20 50 -2 0 40 -77 65 -122 41z"/>
<path d="M3417 1147 c-17 -14 -81 -176 -72 -185 15 -15 37 -8 45 14 13 34 72
35 87 1 6 -12 20 -23 32 -24 25 -2 24 -2 10 34 -24 59 -28 69 -44 115 -19 51
-35 63 -58 45z m27 -108 c-5 -9 -34 -13 -34 -5 0 3 5 17 11 33 l11 28 9 -23
c5 -13 7 -28 3 -33z"/>
<path d="M954 1055 c0 -52 2 -95 5 -96 3 0 14 -2 24 -4 15 -3 17 5 18 58 l0
62 20 -55 c10 -30 23 -58 29 -64 15 -15 36 10 50 59 15 55 26 58 27 8 1 -66 2
-71 21 -69 15 3 17 16 20 99 l3 97 -34 0 c-32 0 -34 -2 -53 -62 l-20 -62 -18
50 c-10 27 -19 55 -22 62 -2 6 -18 12 -37 12 l-33 0 0 -95z"/>
<path d="M1790 1130 c0 -17 5 -21 28 -18 l27 3 3 -77 c2 -43 7 -79 12 -79 39
-7 37 -12 39 89 1 62 1 62 30 62 22 0 29 4 27 18 -2 14 -16 17 -84 20 -78 3
-82 2 -82 -18z"/>
<path d="M2062 1053 l3 -98 73 0 c68 -1 72 0 72 21 0 21 -4 23 -45 20 -53 -3
-68 4 -59 28 5 14 16 17 50 14 39 -3 44 -1 44 18 0 20 -5 22 -44 19 -36 -2
-45 1 -49 16 -6 21 -5 21 55 23 32 1 44 5 46 19 3 15 -6 17 -73 17 l-76 0 3
-97z"/>
<path d="M2326 1063 c2 -114 1 -109 24 -110 17 -2 20 4 20 38 0 37 2 39 30 39
33 0 43 -15 49 -72 1 -4 10 -6 21 -5 23 1 28 44 9 79 -8 14 -8 23 0 31 17 17
13 52 -7 70 -13 12 -37 17 -83 17 l-65 0 2 -87z m107 48 c4 -1 7 -10 7 -21 0
-11 -3 -20 -7 -21 -55 -7 -63 -5 -63 16 0 28 5 32 32 29 13 -1 26 -3 31 -3z"/>
<path d="M3037 1058 c14 -51 27 -96 29 -100 8 -13 44 -4 48 12 11 37 20 86 18
93 -2 5 2 6 8 2 5 -3 10 -12 10 -18 0 -31 22 -86 37 -91 24 -10 31 2 54 85 11
41 22 82 25 92 4 13 0 17 -19 17 -21 0 -25 -7 -38 -62 l-15 -63 -14 60 c-12
48 -19 61 -37 63 -18 3 -24 -5 -39 -55 -18 -63 -17 -65 -38 30 -5 20 -12 27
-30 27 l-25 0 26 -92z"/>
<path d="M3590 1144 c0 -3 16 -32 36 -65 20 -32 34 -64 32 -71 -8 -20 10 -58
27 -58 8 0 15 8 16 18 2 56 7 72 37 120 17 29 32 54 32 57 0 3 -11 5 -25 5
-17 0 -29 -9 -40 -30 -9 -16 -20 -30 -25 -30 -5 0 -16 14 -25 30 -11 21 -23
30 -40 30 -14 0 -25 -3 -25 -6z"/>
</g>
</svg>
